<?xml version="1.0" encoding="UTF-8"?>
<svg id="Layer_2" data-name="Layer 2" xmlns="http://www.w3.org/2000/svg" viewBox="0 0 634.19 215.57">
  <defs>
    <style>
      .cls-1 {
        letter-spacing: -.02em;
      }

      .cls-2 {
        letter-spacing: 0em;
      }

      .cls-3 {
        fill: #ced6b1;
      }

      .cls-4 {
        letter-spacing: -.04em;
      }

      .cls-5 {
        fill: #231f20;
        font-family: Alice-Regular, Alice;
        font-size: 182.77px;
      }
    </style>
  </defs>
  <g id="Layer_1-2" data-name="Layer 1">
    <text class="cls-5" transform="translate(0 149.04)"><tspan class="cls-2" x="0" y="0">C</tspan><tspan x="115.87" y="0">L</tspan><tspan class="cls-4" x="220.23" y="0">A</tspan><tspan class="cls-1" x="332.27" y="0">R</tspan><tspan x="451.98" y="0">O!</tspan></text>
    <rect class="cls-3" x="11" y="194.67" width="220.76" height="7.2"/>
    <g>
      <path class="cls-3" d="M294.97,212.55c.88.31,2.91.79,3.84.91,6.31.83,12.18-3.45,13.75-8.79-7.59-4.15-16.45.07-19.65,6.63.01.23,1.75,1.15,2.06,1.26Z"/>
      <path class="cls-3" d="M289.85,193.88c2.52,1.57,5.2,2.98,8.02,4.03,21.94,8.14,45.55.54,63.3-10.62.47-.3,2.49-1.51,2.45-1.87-.01-.15-1.76-2.3-2.08-2.25-19,12.69-46.87,22.39-69.57,8.44l-2.13,2.28Z"/>
      <path class="cls-3" d="M345.46,202.05c-.65,2.29-.85,5.33.18,7.61,8.85-.75,13.91-8.7,10.41-16.38-.33-.31-2.71.37-3.21.57-3.83,1.47-6.34,4.54-7.38,8.21Z"/>
      <path class="cls-3" d="M305.17,184.6c1,7.19,9.16,14.25,17.31,12.06-.37-8.25-8.56-13.89-17.31-12.06Z"/>
      <path class="cls-3" d="M268.99,181.51c1.54,8.06,10.79,12.94,18.86,9.61-1.04-5.4-6.25-9.07-12-10-1-.16-6.58-.45-6.86.39Z"/>
      <path class="cls-3" d="M277.39,202.28c-.27.76,3.99,3.19,4.8,3.53,6.27,2.61,12.59.28,16.33-4.38-5.74-6.14-16.04-4.4-21.13.86Z"/>
      <path class="cls-3" d="M288.28,179.44c-.37.62.76,4.04,1.12,4.84,2.11,4.69,6.85,8.8,12.57,8.96,2.28.07,2.03-.08,1.92-2.01-.38-6.93-6.49-12.2-14.1-12.08-.43,0-1.29-.09-1.52.29Z"/>
      <path class="cls-3" d="M341.44,200.51c-5.73-.49-10.67,3.64-12.23,8.39-.3.9-1.41,6.21-.48,6.66,9.12.17,14.72-6.97,12.7-15.05Z"/>
      <path class="cls-3" d="M319.49,182.61c-.62.6,2.13,4.75,2.73,5.47,3.14,3.79,8.03,6.28,13.2,5.7,2.3-.25,2.65-.25,2.03-2.35-2.16-7.32-10.34-11.17-17.96-8.82Z"/>
      <path class="cls-3" d="M333.4,181.29c-.27.65,2.67,3.32,3.31,3.8,3.43,2.63,7.64,4.12,12,3.59,1-.12,4.79-1.13,5.09-1.97.18-.5-1.1-2.23-1.51-2.72-4.84-5.77-12.91-6.93-18.89-2.7Z"/>
      <path class="cls-3" d="M328,203.99c-5.81-2-11.79.67-14.96,5.02-.55.75-3.1,5.33-2.23,5.79,5.11,1.13,10.12.6,13.63-2.97.7-.71,2.38-2.8,2.58-3.66l.99-4.18Z"/>
    </g>
    <rect class="cls-3" x="399.52" y="194.67" width="220.77" height="7.2"/>
  </g>
</svg>