<?xml version="1.0" encoding="UTF-8"?><svg id="Layer_2" xmlns="http://www.w3.org/2000/svg" viewBox="0 0 634.19 215.57"><g id="Layer_1-2"><path d="M65.43,152.7c-10.23,0-19.62-2.44-28.15-7.31-8.53-4.87-15.38-11.82-20.56-20.83-5.18-9.02-7.77-19.8-7.77-32.35s2.44-23.3,7.31-32.62c4.87-9.32,11.79-16.57,20.74-21.75,8.96-5.18,19.52-7.77,31.71-7.77,4.39,0,8.92.43,13.62,1.28,4.69.85,9.05,2.28,13.07,4.29s7.28,4.66,9.78,7.95c2.5,3.29,3.75,7.37,3.75,12.25.12,5.24-1.46,9.84-4.75,13.8-3.29,3.96-7.92,5.94-13.89,5.94-3.66,0-6.25-.88-7.77-2.65-1.52-1.77-2.22-3.08-2.1-3.93,0-.37.76-1,2.28-1.92,1.52-.91,3.04-2.31,4.57-4.2,1.52-1.89,2.28-4.42,2.28-7.58,0-5.48-1.83-9.84-5.48-13.07-3.66-3.23-8.84-4.84-15.53-4.84-7.31,0-13.86,2.07-19.65,6.21-5.79,4.14-10.33,10.21-13.62,18.19-3.29,7.98-4.93,17.76-4.93,29.33,0,9.75,1.74,18.61,5.21,26.59,3.47,7.98,8.34,14.32,14.62,19.01,6.27,4.69,13.55,7.04,21.84,7.04,6.58,0,12.21-1.37,16.91-4.11,4.69-2.74,8.92-7.16,12.7-13.25,1.1-2.07,3.04-2.25,5.85-.55,1.1.73,1.95,1.62,2.56,2.65.61,1.04.49,2.1-.37,3.2-4.63,5.85-9.02,10.27-13.16,13.25-4.14,2.99-8.65,5.03-13.52,6.12-4.88,1.1-10.72,1.64-17.55,1.64Z" fill="#231f20"/><path d="M126.84,149.59c-1.1,0-1.89-.43-2.38-1.28-.49-.85-.73-1.76-.73-2.74.12-2.07.61-3.23,1.46-3.47.85-.24,1.89-.37,3.11-.37,3.9,0,6.64-.7,8.22-2.1,1.58-1.4,2.59-3.17,3.02-5.3.43-2.13.64-4.35.64-6.67V55.1c0-2.31-.21-4.54-.64-6.67-.43-2.13-1.43-3.9-3.02-5.3-1.58-1.4-4.33-2.1-8.22-2.1-1.22,0-2.26-.12-3.11-.37-.85-.24-1.34-1.4-1.46-3.47,0-.97.24-1.89.73-2.74.49-.85,1.28-1.28,2.38-1.28,4.02.12,7.74.25,11.15.37,3.41.12,6.94.18,10.6.18,7.43,0,15.05-.18,22.85-.55,1.22,0,2.07.43,2.56,1.28.49.85.73,1.77.73,2.74-.12,2.07-.61,3.23-1.46,3.47-.85.25-1.89.37-3.11.37-3.78,0-6.49.7-8.13,2.1-1.65,1.4-2.65,3.17-3.02,5.3-.37,2.13-.61,4.36-.73,6.67v75.3c.12,1.58.37,3.29.73,5.12.37,1.83,1.43,3.35,3.2,4.57,1.76,1.22,4.72,1.77,8.86,1.64h16.45c4.26-.12,7.52-.82,9.78-2.1,2.25-1.28,4.05-3.44,5.39-6.49,1.34-3.04,2.8-7.25,4.39-12.61.49-1.22,1.31-2.01,2.47-2.38,1.16-.37,2.4-.42,3.75-.18.97.12,1.98.55,3.02,1.28,1.03.73,1.49,1.71,1.37,2.92l-3.66,23.03c-.37,1.71-.95,2.77-1.74,3.2-.79.43-1.98.64-3.56.64h-59.95c-3.66,0-7.22.03-10.69.09-3.47.06-7.22.21-11.24.46Z" fill="#231f20"/><path d="M221.33,149.59c-1.22,0-2.07-.43-2.56-1.28-.49-.85-.73-1.76-.73-2.74.12-2.07.61-3.23,1.46-3.47.85-.24,1.89-.37,3.11-.37,3.29,0,5.79-.67,7.49-2.01,1.71-1.34,3.08-3.11,4.11-5.3,1.03-2.19,2.04-4.45,3.02-6.76l31.98-75.66c1.22-2.92,1.46-5.15.73-6.67-.73-1.52-1.95-2.62-3.66-3.29-1.71-.67-3.6-1.19-5.67-1.55-1.83-.37-3.05-.7-3.66-1.01-.61-.3-.91-1.37-.91-3.2,0-2.07.73-3.2,2.19-3.38,1.46-.18,3.17-.27,5.12-.27,4.99,0,9.26.49,12.79,1.46,3.53.98,6.58,2.83,9.14,5.57,2.56,2.74,4.93,6.85,7.13,12.34l30.7,75.66c.85,2.07,1.77,4.2,2.74,6.4.97,2.19,2.29,3.99,3.93,5.39,1.64,1.4,3.75,2.16,6.3,2.28,1.34,0,2.4.12,3.2.37.79.25,1.25,1.4,1.37,3.47,0,.98-.28,1.89-.82,2.74-.55.85-1.37,1.28-2.47,1.28-3.9-.25-7.31-.4-10.23-.46-2.92-.06-6.21-.09-9.87-.09-7.19,0-14.74.18-22.66.55-1.22,0-2.07-.43-2.56-1.28-.49-.85-.73-1.76-.73-2.74.12-2.07.61-3.23,1.46-3.47.85-.24,1.89-.37,3.11-.37,5.97,0,9.23-1.1,9.78-3.29s-.03-5.79-1.74-10.78l-6.21-15.17h-45.14c-1.83,4.63-3.14,7.98-3.93,10.05-.79,2.07-1.28,3.41-1.46,4.02-.18.61-.34.98-.46,1.1-1.34,4.14-2.04,7.22-2.1,9.23-.06,2.01.91,3.32,2.92,3.93,2.01.61,5.39.91,10.14.91,1.34,0,2.4.12,3.2.37.79.25,1.25,1.4,1.37,3.47,0,.98-.27,1.89-.82,2.74-.55.85-1.37,1.28-2.47,1.28-3.9-.25-7.28-.4-10.14-.46-2.86-.06-6.12-.09-9.78-.09-2.44,0-4.48.03-6.12.09-1.65.06-3.32.12-5.03.18-1.71.06-3.9.15-6.58.27ZM256.05,104.63h38.38l-18.46-46.97h-.55l-19.37,46.97Z" fill="#231f20"/><path d="M343.42,149.59c-1.22,0-2.07-.43-2.56-1.28-.49-.85-.73-1.76-.73-2.74.12-2.07.61-3.23,1.46-3.47.85-.24,1.89-.37,3.11-.37,3.9,0,6.64-.7,8.22-2.1,1.58-1.4,2.59-3.17,3.02-5.3.43-2.13.64-4.35.64-6.67V55.29c0-2.31-.21-4.57-.64-6.76-.43-2.19-1.43-3.99-3.02-5.39-1.58-1.4-4.33-2.1-8.22-2.1-1.22,0-2.26-.12-3.11-.37-.85-.24-1.34-1.4-1.46-3.47,0-.97.24-1.89.73-2.74.49-.85,1.34-1.28,2.56-1.28,3.9.12,7.58.25,11.06.37,3.47.12,7.04.18,10.69.18h31.44c9.87.12,17.88,1.65,24.03,4.57,6.15,2.92,10.63,6.64,13.43,11.15,2.8,4.51,4.2,9.2,4.2,14.07,0,6.46-2.59,12.55-7.77,18.28-5.18,5.73-12.46,9.81-21.84,12.25,4.63,7.31,9.32,14.65,14.07,22.02,4.75,7.37,10.23,14.29,16.45,20.74,1.7,1.34,3.38,2.44,5.03,3.29,1.65.85,3.62,1.4,5.94,1.64.97.12,1.95.27,2.92.46.97.18,1.52,1.31,1.65,3.38,0,.98-.25,1.89-.73,2.74-.49.85-1.34,1.28-2.56,1.28-2.56-.12-4.6-.21-6.12-.27-1.52-.06-3.02-.12-4.48-.18-1.46-.06-3.41-.09-5.85-.09-5-.97-9.23-2.74-12.7-5.3-3.47-2.56-6.85-6.09-10.14-10.6-3.41-4.63-6.58-9.32-9.5-14.07-2.92-4.75-5.79-9.38-8.59-13.89-1.58-2.56-3.2-4.42-4.84-5.57-1.65-1.16-4.72-1.74-9.23-1.74h-5.3v29.79c.12,2.32.37,4.54.73,6.67.37,2.13,1.37,3.9,3.02,5.3,1.64,1.4,4.35,2.1,8.13,2.1,1.22,0,2.25.12,3.11.37.85.25,1.34,1.4,1.46,3.47,0,.98-.25,1.89-.73,2.74-.49.85-1.34,1.28-2.56,1.28-7.8-.37-15.42-.55-22.85-.55-3.66,0-7.19.03-10.6.09-3.41.06-7.07.21-10.97.46ZM374.67,90.74h16.08c6.21,0,11.12-.85,14.71-2.56,3.59-1.7,6.31-3.9,8.13-6.58,1.83-2.68,3.02-5.48,3.56-8.41.55-2.92.82-5.6.82-8.04,0-4.02-.88-7.92-2.65-11.7-1.77-3.78-4.87-6.88-9.32-9.32-4.45-2.44-10.63-3.66-18.55-3.66-5.24,0-8.68,1.01-10.33,3.02-1.65,2.01-2.47,6.06-2.47,12.15v35.09Z" fill="#231f20"/><path d="M518.87,152.7c-8.9,0-16.94-1.64-24.12-4.93-7.19-3.29-13.34-7.74-18.46-13.34-5.12-5.6-9.02-11.97-11.7-19.1-2.68-7.13-4.02-14.59-4.02-22.39,0-10.11,1.74-19.07,5.21-26.87,3.47-7.8,8.07-14.38,13.8-19.74,5.73-5.36,12.03-9.41,18.92-12.15,6.88-2.74,13.68-4.11,20.38-4.11,9.14,0,17.33,1.64,24.58,4.93,7.25,3.29,13.43,7.74,18.55,13.34,5.12,5.61,9.02,11.97,11.7,19.1,2.68,7.13,4.02,14.53,4.02,22.21,0,10.11-1.77,19.07-5.3,26.87-3.54,7.8-8.22,14.38-14.07,19.74-5.85,5.36-12.22,9.44-19.1,12.25-6.89,2.8-13.68,4.2-20.38,4.2ZM518.69,144.66c8.65,0,15.72-2.56,21.2-7.68,5.48-5.12,9.53-11.85,12.15-20.2,2.62-8.34,3.93-17.39,3.93-27.14,0-9.14-1.37-17.64-4.11-25.5-2.74-7.86-6.85-14.19-12.34-19.01-5.48-4.81-12.43-7.22-20.84-7.22s-15.51,2.53-20.93,7.58c-5.42,5.06-9.41,11.7-11.97,19.92-2.56,8.22-3.84,17.21-3.84,26.96,0,9.14,1.31,17.7,3.93,25.68,2.62,7.98,6.67,14.41,12.15,19.28,5.48,4.88,12.37,7.31,20.65,7.31Z" fill="#231f20"/><path d="M610.07,151.24c-3.29,0-6.03-1.1-8.22-3.29s-3.29-4.99-3.29-8.41c0-3.17,1.1-5.88,3.29-8.13,2.19-2.25,4.99-3.38,8.41-3.38s6.21,1.13,8.41,3.38c2.19,2.26,3.29,4.97,3.29,8.13,0,3.41-1.1,6.21-3.29,8.41s-5.06,3.29-8.59,3.29ZM610.25,111.21c-.85,0-1.8-.21-2.83-.64-1.04-.43-1.55-1.07-1.55-1.92,0-3.78-.27-8.25-.82-13.43-.55-5.18-1.19-10.72-1.92-16.63-.73-5.91-1.37-11.76-1.92-17.55-.55-5.79-.82-11.18-.82-16.17,0-6.21.7-11.33,2.1-15.35,1.4-4.02,3.99-6.03,7.77-6.03s6.37,2.01,7.77,6.03c1.4,4.02,2.1,9.14,2.1,15.35,0,5-.27,10.39-.82,16.17-.55,5.79-1.19,11.64-1.92,17.55-.73,5.91-1.37,11.45-1.92,16.63-.55,5.18-.82,9.66-.82,13.43,0,.85-.46,1.49-1.37,1.92-.91.43-1.92.64-3.02.64Z" fill="#231f20"/><rect x="11" y="194.67" width="220.76" height="7.2" fill="#ced6b1"/><path d="M294.97,212.55c.88.31,2.91.79,3.84.91,6.31.83,12.18-3.45,13.75-8.79-7.59-4.15-16.45.07-19.65,6.63.01.23,1.75,1.15,2.06,1.26Z" fill="#ced6b1"/><path d="M289.85,193.88c2.52,1.57,5.2,2.98,8.02,4.03,21.94,8.14,45.55.54,63.3-10.62.47-.3,2.49-1.51,2.45-1.87-.01-.15-1.76-2.3-2.08-2.25-19,12.69-46.87,22.39-69.57,8.44l-2.13,2.28Z" fill="#ced6b1"/><path d="M345.46,202.05c-.65,2.29-.85,5.33.18,7.61,8.85-.75,13.91-8.7,10.41-16.38-.33-.31-2.71.37-3.21.57-3.83,1.47-6.34,4.54-7.38,8.21Z" fill="#ced6b1"/><path d="M305.17,184.6c1,7.19,9.16,14.25,17.31,12.06-.37-8.25-8.56-13.89-17.31-12.06Z" fill="#ced6b1"/><path d="M268.99,181.51c1.54,8.06,10.79,12.94,18.86,9.61-1.04-5.4-6.25-9.07-12-10-1-.16-6.58-.45-6.86.39Z" fill="#ced6b1"/><path d="M277.39,202.28c-.27.76,3.99,3.19,4.8,3.53,6.27,2.61,12.59.28,16.33-4.38-5.74-6.14-16.04-4.4-21.13.86Z" fill="#ced6b1"/><path d="M288.28,179.44c-.37.62.76,4.04,1.12,4.84,2.11,4.69,6.85,8.8,12.57,8.96,2.28.07,2.03-.08,1.92-2.01-.38-6.93-6.49-12.2-14.1-12.08-.43,0-1.29-.09-1.52.29Z" fill="#ced6b1"/><path d="M341.44,200.51c-5.73-.49-10.67,3.64-12.23,8.39-.3.9-1.41,6.21-.48,6.66,9.12.17,14.72-6.97,12.7-15.05Z" fill="#ced6b1"/><path d="M319.49,182.61c-.62.6,2.13,4.75,2.73,5.47,3.14,3.79,8.03,6.28,13.2,5.7,2.3-.25,2.65-.25,2.03-2.35-2.16-7.32-10.34-11.17-17.96-8.82Z" fill="#ced6b1"/><path d="M333.4,181.29c-.27.65,2.67,3.32,3.31,3.8,3.43,2.63,7.64,4.12,12,3.59,1-.12,4.79-1.13,5.09-1.97.18-.5-1.1-2.23-1.51-2.72-4.84-5.77-12.91-6.93-18.89-2.7Z" fill="#ced6b1"/><path d="M328,203.99c-5.81-2-11.79.67-14.96,5.02-.55.75-3.1,5.33-2.23,5.79,5.11,1.13,10.12.6,13.63-2.97.7-.71,2.38-2.8,2.58-3.66l.99-4.18Z" fill="#ced6b1"/><rect x="399.52" y="194.67" width="220.77" height="7.2" fill="#ced6b1"/></g></svg>